M48
;DRILL file {KiCad (5.0.1-3-g963ef8bb5)} date Friday, September 06, 2019 at 12:34:20 PM
;FORMAT={-:-/ absolute / inch / decimal}
FMAT,2
INCH,TZ
T1C0.0100
T2C0.0256
T3C0.0315
T4C0.0354
T5C0.0394
T6C0.0748
T7C0.1339
%
G90
G05
M72
T1
X1.6299Y-3.252
X1.7323Y-3.248
X2.3228Y-3.2165
X2.3268Y-3.3504
X2.4094Y-3.3661
X2.4567Y-3.2283
X2.9724Y-3.4803
X3.0197Y-3.1417
X3.0276Y-3.2126
X3.0512Y-3.5197
X3.1024Y-3.2717
X3.1102Y-3.1457
X3.5827Y-3.9921
X3.6378Y-3.5236
X3.6496Y-3.4528
X3.6614Y-3.2835
X3.685Y-3.9961
X3.8025Y-3.2874
X3.811Y-3.5197
X3.8189Y-3.6378
X4.2323Y-3.7992
X4.311Y-3.7638
X4.3661Y-3.4567
X4.3661Y-3.622
X4.3661Y-3.7205
X4.3858Y-3.8346
X4.3976Y-3.7913
X4.4331Y-3.7756
X4.4567Y-3.5945
X4.4646Y-3.4606
T2
X5.2717Y-3.7283
X5.2717Y-3.7783
X5.2717Y-3.8283
T3
X4.9094Y-3.9567
X4.9094Y-4.0354
X4.9094Y-4.1142
X4.9094Y-4.1929
X4.9094Y-4.2717
X4.9094Y-4.3504
X4.9016Y-3.4094
X4.9016Y-3.4882
X4.9016Y-3.5669
X4.9016Y-3.6457
X4.9016Y-3.7244
X4.9016Y-3.8031
X5.2087Y-2.0984
X5.2087Y-2.1772
X5.2087Y-2.2559
X5.2087Y-2.3346
X5.2087Y-2.4134
X5.2087Y-2.4921
T4
X0.7778Y-3.1029
X0.7778Y-3.2029
X0.7778Y-3.3029
T5
X5.0394Y-2.8543
X5.0394Y-2.9543
X5.0394Y-3.0543
X5.0394Y-3.1543
X5.0394Y-3.2543
X5.0394Y-3.3543
X5.0394Y-3.4543
X5.0394Y-3.5543
X5.0394Y-3.6543
X5.0394Y-3.7543
X5.0394Y-3.8543
X5.0394Y-3.9543
X5.0394Y-4.0543
X5.0394Y-4.1543
X5.0394Y-4.2543
X5.0394Y-4.3543
X1.6727Y-2.9542
X1.879Y-2.9067
X2.0565Y-3.0219
X0.9942Y-2.8346
X1.2004Y-2.787
X1.378Y-2.9023
X3.1915Y-2.1626
X3.3978Y-2.1151
X3.5753Y-2.2303
X3.9423Y-1.8153
X4.1486Y-1.7677
X4.3262Y-1.883
X2.3717Y-2.9576
X2.578Y-2.91
X2.7555Y-3.0252
X1.2403Y-1.4388
X1.4466Y-1.3912
X1.6241Y-1.5065
X3.5732Y-3.909
X3.7794Y-3.8614
X3.957Y-3.9767
X3.3145Y-1.4647
X3.5208Y-1.4172
X3.6984Y-1.5324
X2.8223Y-4.2563
X3.0286Y-4.2087
X3.2061Y-4.324
X2.4948Y-2.2597
X2.701Y-2.2121
X2.8786Y-2.3273
X3.6962Y-3.2111
X3.9025Y-3.1635
X4.0801Y-3.2788
X1.9188Y-1.5584
X2.1251Y-1.5109
X2.3026Y-1.6261
X2.6212Y-1.5424
X2.8275Y-1.4948
X3.0051Y-1.6101
X2.9454Y-3.5584
X3.1516Y-3.5109
X3.3292Y-3.6261
X0.7481Y-4.2304
X0.9543Y-4.1828
X1.1319Y-4.2981
X4.0944Y-4.9204
X4.3007Y-4.8728
X4.4783Y-4.9881
X4.5867Y-2.1288
X4.7929Y-2.0812
X4.9705Y-2.1965
X3.8193Y-2.5132
X4.0256Y-2.4656
X4.2031Y-2.5809
X2.2486Y-3.6555
X2.4549Y-3.6079
X2.6325Y-3.7231
X1.4266Y-4.35
X1.6328Y-4.3024
X1.8104Y-4.4177
X3.0684Y-2.8605
X3.2747Y-2.813
X3.4523Y-2.9282
X1.7957Y-2.2563
X2.002Y-2.2088
X2.1796Y-2.324
X4.2175Y-4.2225
X4.4238Y-4.1749
X4.6013Y-4.2902
X4.8293Y-4.7202
X5.0356Y-4.6726
X5.2132Y-4.7878
X3.4501Y-4.6069
X3.6564Y-4.5593
X3.8339Y-4.6746
X1.5496Y-3.6521
X1.7559Y-3.6046
X1.9335Y-3.7198
X0.8711Y-3.5325
X1.0774Y-3.4849
X1.255Y-3.6002
X4.3405Y-3.5246
X4.5468Y-3.477
X4.7244Y-3.5923
X4.4636Y-2.8267
X4.6699Y-2.7791
X4.8474Y-2.8944
X2.1256Y-4.3534
X2.3319Y-4.3058
X2.5094Y-4.421
X1.1172Y-2.1367
X1.3235Y-2.0891
X1.5011Y-2.2044
T6
X1.6254Y-3.0978
X2.0519Y-3.173
X0.9469Y-2.9782
X1.3734Y-3.0534
X3.1442Y-2.3062
X3.5707Y-2.3814
X3.895Y-1.9589
X4.3215Y-2.0341
X2.3244Y-3.1011
X2.7509Y-3.1763
X1.193Y-1.5824
X1.6195Y-1.6576
X3.5259Y-4.0526
X3.9523Y-4.1278
X3.2672Y-1.6083
X3.6937Y-1.6835
X2.775Y-4.3999
X3.2015Y-4.4751
X2.4475Y-2.4032
X2.8739Y-2.4784
X3.6489Y-3.3547
X4.0754Y-3.4299
X1.8715Y-1.702
X2.298Y-1.7772
X2.5739Y-1.686
X3.0004Y-1.7612
X2.8981Y-3.702
X3.3246Y-3.7772
X0.7008Y-4.374
X1.1272Y-4.4492
X4.0471Y-5.064
X4.4736Y-5.1392
X4.5394Y-2.2724
X4.9658Y-2.3476
X3.772Y-2.6568
X4.1985Y-2.732
X2.2013Y-3.799
X2.6278Y-3.8742
X1.3793Y-4.4936
X1.8058Y-4.5688
X3.0211Y-3.0041
X3.4476Y-3.0793
X1.7484Y-2.3999
X2.1749Y-2.4751
X4.1702Y-4.3661
X4.5967Y-4.4413
X4.782Y-4.8637
X5.2085Y-4.9389
X3.4028Y-4.7505
X3.8293Y-4.8257
X1.5023Y-3.7957
X1.9288Y-3.8709
X0.8238Y-3.6761
X1.2503Y-3.7513
X4.2932Y-3.6682
X4.7197Y-3.7434
X4.4163Y-2.9703
X4.8428Y-3.0455
X2.0783Y-4.4969
X2.5048Y-4.5721
X1.0699Y-2.2803
X1.4964Y-2.3555
T7
X1.8386Y-3.1354
X1.1601Y-3.0158
X3.3574Y-2.3438
X4.1083Y-1.9965
X2.5376Y-3.1387
X1.4062Y-1.62
X3.7391Y-4.0902
X3.4805Y-1.6459
X2.9882Y-4.4375
X2.6607Y-2.4408
X3.8622Y-3.3923
X2.0847Y-1.7396
X2.7872Y-1.7236
X3.1113Y-3.7396
X0.914Y-4.4116
X4.2604Y-5.1016
X4.7526Y-2.31
X3.9852Y-2.6944
X2.4146Y-3.8366
X1.5925Y-4.5312
X3.2344Y-3.0417
X1.9617Y-2.4375
X4.3834Y-4.4037
X4.9953Y-4.9013
X3.616Y-4.7881
X1.7156Y-3.8333
X1.0371Y-3.7137
X4.5065Y-3.7058
X4.6295Y-3.0079
X2.2915Y-4.5345
X1.2832Y-2.3179
T0
M30
