G04 #@! TF.GenerationSoftware,KiCad,Pcbnew,(5.0.1-3-g963ef8bb5)*
G04 #@! TF.CreationDate,2019-09-06T12:34:14-07:00*
G04 #@! TF.ProjectId,atreus-ipad-11,6174726575732D697061642D31312E6B,rev?*
G04 #@! TF.SameCoordinates,Original*
G04 #@! TF.FileFunction,Paste,Top*
G04 #@! TF.FilePolarity,Positive*
%FSLAX46Y46*%
G04 Gerber Fmt 4.6, Leading zero omitted, Abs format (unit mm)*
G04 Created by KiCad (PCBNEW (5.0.1-3-g963ef8bb5)) date Friday, September 06, 2019 at 12:34:14 PM*
%MOMM*%
%LPD*%
G01*
G04 APERTURE LIST*
%ADD10C,0.900000*%
%ADD11C,0.100000*%
G04 APERTURE END LIST*
D10*
G04 #@! TO.C,D1*
X36995891Y-32297626D03*
D11*
G36*
X36448539Y-32810369D02*
X36656916Y-31628600D01*
X37543243Y-31784883D01*
X37334866Y-32966652D01*
X36448539Y-32810369D01*
X36448539Y-32810369D01*
G37*
D10*
X33746025Y-31724586D03*
D11*
G36*
X33198673Y-32237329D02*
X33407050Y-31055560D01*
X34293377Y-31211843D01*
X34085000Y-32393612D01*
X33198673Y-32237329D01*
X33198673Y-32237329D01*
G37*
G04 #@! TD*
D10*
G04 #@! TO.C,D2*
X33820824Y-49984145D03*
D11*
G36*
X33273472Y-50496888D02*
X33481849Y-49315119D01*
X34368176Y-49471402D01*
X34159799Y-50653171D01*
X33273472Y-50496888D01*
X33273472Y-50496888D01*
G37*
D10*
X30570958Y-49411107D03*
D11*
G36*
X30023606Y-49923850D02*
X30231983Y-48742081D01*
X31118310Y-48898364D01*
X30909933Y-50080133D01*
X30023606Y-49923850D01*
X30023606Y-49923850D01*
G37*
G04 #@! TD*
D10*
G04 #@! TO.C,D3*
X27546024Y-67124588D03*
D11*
G36*
X26998672Y-67637331D02*
X27207049Y-66455562D01*
X28093376Y-66611845D01*
X27884999Y-67793614D01*
X26998672Y-67637331D01*
X26998672Y-67637331D01*
G37*
D10*
X30795890Y-67697626D03*
D11*
G36*
X30248538Y-68210369D02*
X30456915Y-67028600D01*
X31343242Y-67184883D01*
X31134865Y-68366652D01*
X30248538Y-68210369D01*
X30248538Y-68210369D01*
G37*
G04 #@! TD*
D10*
G04 #@! TO.C,D4*
X24146025Y-84724588D03*
D11*
G36*
X23598673Y-85237331D02*
X23807050Y-84055562D01*
X24693377Y-84211845D01*
X24485000Y-85393614D01*
X23598673Y-85237331D01*
X23598673Y-85237331D01*
G37*
D10*
X27395891Y-85297626D03*
D11*
G36*
X26848539Y-85810369D02*
X27056916Y-84628600D01*
X27943243Y-84784883D01*
X27734866Y-85966652D01*
X26848539Y-85810369D01*
X26848539Y-85810369D01*
G37*
G04 #@! TD*
D10*
G04 #@! TO.C,D5*
X21546025Y-102724588D03*
D11*
G36*
X20998673Y-103237331D02*
X21207050Y-102055562D01*
X22093377Y-102211845D01*
X21885000Y-103393614D01*
X20998673Y-103237331D01*
X20998673Y-103237331D01*
G37*
D10*
X24795891Y-103297626D03*
D11*
G36*
X24248539Y-103810369D02*
X24456916Y-102628600D01*
X25343243Y-102784883D01*
X25134866Y-103966652D01*
X24248539Y-103810369D01*
X24248539Y-103810369D01*
G37*
G04 #@! TD*
D10*
G04 #@! TO.C,D6*
X54595891Y-35097626D03*
D11*
G36*
X54048539Y-35610369D02*
X54256916Y-34428600D01*
X55143243Y-34584883D01*
X54934866Y-35766652D01*
X54048539Y-35610369D01*
X54048539Y-35610369D01*
G37*
D10*
X51346025Y-34524588D03*
D11*
G36*
X50798673Y-35037331D02*
X51007050Y-33855562D01*
X51893377Y-34011845D01*
X51685000Y-35193614D01*
X50798673Y-35037331D01*
X50798673Y-35037331D01*
G37*
G04 #@! TD*
D10*
G04 #@! TO.C,D7*
X51395891Y-52897626D03*
D11*
G36*
X50848539Y-53410369D02*
X51056916Y-52228600D01*
X51943243Y-52384883D01*
X51734866Y-53566652D01*
X50848539Y-53410369D01*
X50848539Y-53410369D01*
G37*
D10*
X48146025Y-52324588D03*
D11*
G36*
X47598673Y-52837331D02*
X47807050Y-51655562D01*
X48693377Y-51811845D01*
X48485000Y-52993614D01*
X47598673Y-52837331D01*
X47598673Y-52837331D01*
G37*
G04 #@! TD*
D10*
G04 #@! TO.C,D8*
X44946025Y-70124588D03*
D11*
G36*
X44398673Y-70637331D02*
X44607050Y-69455562D01*
X45493377Y-69611845D01*
X45285000Y-70793614D01*
X44398673Y-70637331D01*
X44398673Y-70637331D01*
G37*
D10*
X48195891Y-70697626D03*
D11*
G36*
X47648539Y-71210369D02*
X47856916Y-70028600D01*
X48743243Y-70184883D01*
X48534866Y-71366652D01*
X47648539Y-71210369D01*
X47648539Y-71210369D01*
G37*
G04 #@! TD*
D10*
G04 #@! TO.C,D9*
X41746025Y-88031755D03*
D11*
G36*
X41198673Y-88544498D02*
X41407050Y-87362729D01*
X42293377Y-87519012D01*
X42085000Y-88700781D01*
X41198673Y-88544498D01*
X41198673Y-88544498D01*
G37*
D10*
X44995891Y-88604793D03*
D11*
G36*
X44448539Y-89117536D02*
X44656916Y-87935767D01*
X45543243Y-88092050D01*
X45334866Y-89273819D01*
X44448539Y-89117536D01*
X44448539Y-89117536D01*
G37*
G04 #@! TD*
D10*
G04 #@! TO.C,D10*
X38746025Y-105724587D03*
D11*
G36*
X38198673Y-106237330D02*
X38407050Y-105055561D01*
X39293377Y-105211844D01*
X39085000Y-106393613D01*
X38198673Y-106237330D01*
X38198673Y-106237330D01*
G37*
D10*
X41995891Y-106297627D03*
D11*
G36*
X41448539Y-106810370D02*
X41656916Y-105628601D01*
X42543243Y-105784884D01*
X42334866Y-106966653D01*
X41448539Y-106810370D01*
X41448539Y-106810370D01*
G37*
G04 #@! TD*
D10*
G04 #@! TO.C,D11*
X72195891Y-34897626D03*
D11*
G36*
X71648539Y-35410369D02*
X71856916Y-34228600D01*
X72743243Y-34384883D01*
X72534866Y-35566652D01*
X71648539Y-35410369D01*
X71648539Y-35410369D01*
G37*
D10*
X68946025Y-34324588D03*
D11*
G36*
X68398673Y-34837331D02*
X68607050Y-33655562D01*
X69493377Y-33811845D01*
X69285000Y-34993614D01*
X68398673Y-34837331D01*
X68398673Y-34837331D01*
G37*
G04 #@! TD*
D10*
G04 #@! TO.C,D12*
X68195891Y-52697626D03*
D11*
G36*
X67648539Y-53210369D02*
X67856916Y-52028600D01*
X68743243Y-52184883D01*
X68534866Y-53366652D01*
X67648539Y-53210369D01*
X67648539Y-53210369D01*
G37*
D10*
X64946025Y-52124588D03*
D11*
G36*
X64398673Y-52637331D02*
X64607050Y-51455562D01*
X65493377Y-51611845D01*
X65285000Y-52793614D01*
X64398673Y-52637331D01*
X64398673Y-52637331D01*
G37*
G04 #@! TD*
D10*
G04 #@! TO.C,D13*
X65995890Y-70897626D03*
D11*
G36*
X65448538Y-71410369D02*
X65656915Y-70228600D01*
X66543242Y-70384883D01*
X66334865Y-71566652D01*
X65448538Y-71410369D01*
X65448538Y-71410369D01*
G37*
D10*
X62746024Y-70324588D03*
D11*
G36*
X62198672Y-70837331D02*
X62407049Y-69655562D01*
X63293376Y-69811845D01*
X63084999Y-70993614D01*
X62198672Y-70837331D01*
X62198672Y-70837331D01*
G37*
G04 #@! TD*
D10*
G04 #@! TO.C,D14*
X59346025Y-88124589D03*
D11*
G36*
X58798673Y-88637332D02*
X59007050Y-87455563D01*
X59893377Y-87611846D01*
X59685000Y-88793615D01*
X58798673Y-88637332D01*
X58798673Y-88637332D01*
G37*
D10*
X62595891Y-88697627D03*
D11*
G36*
X62048539Y-89210370D02*
X62256916Y-88028601D01*
X63143243Y-88184884D01*
X62934866Y-89366653D01*
X62048539Y-89210370D01*
X62048539Y-89210370D01*
G37*
G04 #@! TD*
D10*
G04 #@! TO.C,D15*
X56546025Y-105724588D03*
D11*
G36*
X55998673Y-106237331D02*
X56207050Y-105055562D01*
X57093377Y-105211845D01*
X56885000Y-106393614D01*
X55998673Y-106237331D01*
X55998673Y-106237331D01*
G37*
D10*
X59795891Y-106297626D03*
D11*
G36*
X59248539Y-106810369D02*
X59456916Y-105628600D01*
X60343243Y-105784883D01*
X60134866Y-106966652D01*
X59248539Y-106810369D01*
X59248539Y-106810369D01*
G37*
G04 #@! TD*
D10*
G04 #@! TO.C,D16*
X89795891Y-33097626D03*
D11*
G36*
X89248539Y-33610369D02*
X89456916Y-32428600D01*
X90343243Y-32584883D01*
X90134866Y-33766652D01*
X89248539Y-33610369D01*
X89248539Y-33610369D01*
G37*
D10*
X86546025Y-32524588D03*
D11*
G36*
X85998673Y-33037331D02*
X86207050Y-31855562D01*
X87093377Y-32011845D01*
X86885000Y-33193614D01*
X85998673Y-33037331D01*
X85998673Y-33037331D01*
G37*
G04 #@! TD*
D10*
G04 #@! TO.C,D17*
X86595891Y-50697626D03*
D11*
G36*
X86048539Y-51210369D02*
X86256916Y-50028600D01*
X87143243Y-50184883D01*
X86934866Y-51366652D01*
X86048539Y-51210369D01*
X86048539Y-51210369D01*
G37*
D10*
X83346025Y-50124588D03*
D11*
G36*
X82798673Y-50637331D02*
X83007050Y-49455562D01*
X83893377Y-49611845D01*
X83685000Y-50793614D01*
X82798673Y-50637331D01*
X82798673Y-50637331D01*
G37*
G04 #@! TD*
D10*
G04 #@! TO.C,D18*
X83595891Y-68297626D03*
D11*
G36*
X83048539Y-68810369D02*
X83256916Y-67628600D01*
X84143243Y-67784883D01*
X83934866Y-68966652D01*
X83048539Y-68810369D01*
X83048539Y-68810369D01*
G37*
D10*
X80346025Y-67724588D03*
D11*
G36*
X79798673Y-68237331D02*
X80007050Y-67055562D01*
X80893377Y-67211845D01*
X80685000Y-68393614D01*
X79798673Y-68237331D01*
X79798673Y-68237331D01*
G37*
G04 #@! TD*
D10*
G04 #@! TO.C,D19*
X77146024Y-85524588D03*
D11*
G36*
X76598672Y-86037331D02*
X76807049Y-84855562D01*
X77693376Y-85011845D01*
X77484999Y-86193614D01*
X76598672Y-86037331D01*
X76598672Y-86037331D01*
G37*
D10*
X80395890Y-86097626D03*
D11*
G36*
X79848538Y-86610369D02*
X80056915Y-85428600D01*
X80943242Y-85584883D01*
X80734865Y-86766652D01*
X79848538Y-86610369D01*
X79848538Y-86610369D01*
G37*
G04 #@! TD*
D10*
G04 #@! TO.C,D20*
X73946025Y-103324588D03*
D11*
G36*
X73398673Y-103837331D02*
X73607050Y-102655562D01*
X74493377Y-102811845D01*
X74285000Y-103993614D01*
X73398673Y-103837331D01*
X73398673Y-103837331D01*
G37*
D10*
X77195891Y-103897626D03*
D11*
G36*
X76648539Y-104410369D02*
X76856916Y-103228600D01*
X77743243Y-103384883D01*
X77534866Y-104566652D01*
X76648539Y-104410369D01*
X76648539Y-104410369D01*
G37*
G04 #@! TD*
D10*
G04 #@! TO.C,D21*
X105995890Y-41897626D03*
D11*
G36*
X105448538Y-42410369D02*
X105656915Y-41228600D01*
X106543242Y-41384883D01*
X106334865Y-42566652D01*
X105448538Y-42410369D01*
X105448538Y-42410369D01*
G37*
D10*
X102746024Y-41324588D03*
D11*
G36*
X102198672Y-41837331D02*
X102407049Y-40655562D01*
X103293376Y-40811845D01*
X103084999Y-41993614D01*
X102198672Y-41837331D01*
X102198672Y-41837331D01*
G37*
G04 #@! TD*
D10*
G04 #@! TO.C,D22*
X102795891Y-59697626D03*
D11*
G36*
X102248539Y-60210369D02*
X102456916Y-59028600D01*
X103343243Y-59184883D01*
X103134866Y-60366652D01*
X102248539Y-60210369D01*
X102248539Y-60210369D01*
G37*
D10*
X99546025Y-59124588D03*
D11*
G36*
X98998673Y-59637331D02*
X99207050Y-58455562D01*
X100093377Y-58611845D01*
X99885000Y-59793614D01*
X98998673Y-59637331D01*
X98998673Y-59637331D01*
G37*
G04 #@! TD*
D10*
G04 #@! TO.C,D23*
X96146025Y-76524588D03*
D11*
G36*
X95598673Y-77037331D02*
X95807050Y-75855562D01*
X96693377Y-76011845D01*
X96485000Y-77193614D01*
X95598673Y-77037331D01*
X95598673Y-77037331D01*
G37*
D10*
X99395891Y-77097626D03*
D11*
G36*
X98848539Y-77610369D02*
X99056916Y-76428600D01*
X99943243Y-76584883D01*
X99734866Y-77766652D01*
X98848539Y-77610369D01*
X98848539Y-77610369D01*
G37*
G04 #@! TD*
D10*
G04 #@! TO.C,D24*
X92946024Y-94524588D03*
D11*
G36*
X92398672Y-95037331D02*
X92607049Y-93855562D01*
X93493376Y-94011845D01*
X93284999Y-95193614D01*
X92398672Y-95037331D01*
X92398672Y-95037331D01*
G37*
D10*
X96195890Y-95097626D03*
D11*
G36*
X95648538Y-95610369D02*
X95856915Y-94428600D01*
X96743242Y-94584883D01*
X96534865Y-95766652D01*
X95648538Y-95610369D01*
X95648538Y-95610369D01*
G37*
G04 #@! TD*
D10*
G04 #@! TO.C,D25*
X90146025Y-112124588D03*
D11*
G36*
X89598673Y-112637331D02*
X89807050Y-111455562D01*
X90693377Y-111611845D01*
X90485000Y-112793614D01*
X89598673Y-112637331D01*
X89598673Y-112637331D01*
G37*
D10*
X93395891Y-112697626D03*
D11*
G36*
X92848539Y-113210369D02*
X93056916Y-112028600D01*
X93943243Y-112184883D01*
X93734866Y-113366652D01*
X92848539Y-113210369D01*
X92848539Y-113210369D01*
G37*
G04 #@! TD*
D10*
G04 #@! TO.C,D26*
X125146024Y-115124588D03*
D11*
G36*
X124598672Y-115637331D02*
X124807049Y-114455562D01*
X125693376Y-114611845D01*
X125484999Y-115793614D01*
X124598672Y-115637331D01*
X124598672Y-115637331D01*
G37*
D10*
X128395890Y-115697626D03*
D11*
G36*
X127848538Y-116210369D02*
X128056915Y-115028600D01*
X128943242Y-115184883D01*
X128734865Y-116366652D01*
X127848538Y-116210369D01*
X127848538Y-116210369D01*
G37*
G04 #@! TD*
D10*
G04 #@! TO.C,D27*
X122195891Y-49497626D03*
D11*
G36*
X121648539Y-50010369D02*
X121856916Y-48828600D01*
X122743243Y-48984883D01*
X122534866Y-50166652D01*
X121648539Y-50010369D01*
X121648539Y-50010369D01*
G37*
D10*
X118946025Y-48924588D03*
D11*
G36*
X118398673Y-49437331D02*
X118607050Y-48255562D01*
X119493377Y-48411845D01*
X119285000Y-49593614D01*
X118398673Y-49437331D01*
X118398673Y-49437331D01*
G37*
G04 #@! TD*
D10*
G04 #@! TO.C,D28*
X119195891Y-67497626D03*
D11*
G36*
X118648539Y-68010369D02*
X118856916Y-66828600D01*
X119743243Y-66984883D01*
X119534866Y-68166652D01*
X118648539Y-68010369D01*
X118648539Y-68010369D01*
G37*
D10*
X115946025Y-66924588D03*
D11*
G36*
X115398673Y-67437331D02*
X115607050Y-66255562D01*
X116493377Y-66411845D01*
X116285000Y-67593614D01*
X115398673Y-67437331D01*
X115398673Y-67437331D01*
G37*
G04 #@! TD*
D10*
G04 #@! TO.C,D29*
X115995891Y-85297627D03*
D11*
G36*
X115448539Y-85810370D02*
X115656916Y-84628601D01*
X116543243Y-84784884D01*
X116334866Y-85966653D01*
X115448539Y-85810370D01*
X115448539Y-85810370D01*
G37*
D10*
X112746025Y-84724589D03*
D11*
G36*
X112198673Y-85237332D02*
X112407050Y-84055563D01*
X113293377Y-84211846D01*
X113085000Y-85393615D01*
X112198673Y-85237332D01*
X112198673Y-85237332D01*
G37*
G04 #@! TD*
D10*
G04 #@! TO.C,D30*
X109746025Y-102724588D03*
D11*
G36*
X109198673Y-103237331D02*
X109407050Y-102055562D01*
X110293377Y-102211845D01*
X110085000Y-103393614D01*
X109198673Y-103237331D01*
X109198673Y-103237331D01*
G37*
D10*
X112995891Y-103297626D03*
D11*
G36*
X112448539Y-103810369D02*
X112656916Y-102628600D01*
X113543243Y-102784883D01*
X113334866Y-103966652D01*
X112448539Y-103810369D01*
X112448539Y-103810369D01*
G37*
G04 #@! TD*
D10*
G04 #@! TO.C,D31*
X106746025Y-120124588D03*
D11*
G36*
X106198673Y-120637331D02*
X106407050Y-119455562D01*
X107293377Y-119611845D01*
X107085000Y-120793614D01*
X106198673Y-120637331D01*
X106198673Y-120637331D01*
G37*
D10*
X109995891Y-120697626D03*
D11*
G36*
X109448539Y-121210369D02*
X109656916Y-120028600D01*
X110543243Y-120184883D01*
X110334866Y-121366652D01*
X109448539Y-121210369D01*
X109448539Y-121210369D01*
G37*
G04 #@! TD*
M02*
