<?xml version="1.0" standalone="no"?>
 <!DOCTYPE svg PUBLIC "-//W3C//DTD SVG 1.1//EN"
 "http://www.w3.org/Graphics/SVG/1.1/DTD/svg11.dtd">
<svg xmlns="http://www.w3.org/2000/svg" version="1.1"
    width="12.2123cm" height="11.2979cm" viewBox="0 0 48080 44480 ">
<title>SVG Picture created as atreus-ipad-11-brd.svg date 2019/08/18 14:04:32 </title>
  <desc>Picture generated by PCBNEW </desc>
<g style="fill:#000000; fill-opacity:1;stroke:#000000; stroke-opacity:1;
stroke-linecap:round; stroke-linejoin:round; "
 transform="translate(0 0) scale(1 1)">
</g>
<g style="fill:#000000; fill-opacity:0.0;
stroke:#000000; stroke-width:-0.000393701; stroke-opacity:1;
stroke-linecap:round; stroke-linejoin:round;">
</g>
<g style="fill:#C2C2C2; fill-opacity:0.0;
stroke:#C2C2C2; stroke-width:-0.000393701; stroke-opacity:1;
stroke-linecap:round; stroke-linejoin:round;">
</g>
<g style="fill:#C2C2C2; fill-opacity:0.0;
stroke:#C2C2C2; stroke-width:59.0551; stroke-opacity:1;
stroke-linecap:round; stroke-linejoin:round;">
<path d="M47697 35705
L42268 34747
" />
<path d="M46739 41133
L47697 35705
" />
<path d="M41311 40175
L46739 41133
" />
<path d="M42268 34747
L41311 40175
" />
<path d="M18591 4087
L13163 3130
" />
<path d="M17634 9515
L18591 4087
" />
<path d="M12206 8558
L17634 9515
" />
<path d="M13163 3130
L12206 8558
" />
<path d="M11806 2891
L6378 1934
" />
<path d="M10849 8319
L11806 2891
" />
<path d="M5421 7362
L10849 8319
" />
<path d="M6378 1934
L5421 7362
" />
<path d="M10575 9870
L5147 8913
" />
<path d="M9618 15298
L10575 9870
" />
<path d="M4190 14341
L9618 15298
" />
<path d="M5147 8913
L4190 14341
" />
<path d="M9345 16849
L3917 15892
" />
<path d="M8388 22277
L9345 16849
" />
<path d="M2960 21320
L8388 22277
" />
<path d="M3917 15892
L2960 21320
" />
<path d="M8114 23828
L2686 22871
" />
<path d="M7157 29256
L8114 23828
" />
<path d="M1729 28299
L7157 29256
" />
<path d="M2686 22871
L1729 28299
" />
<path d="M6884 30807
L1456 29850
" />
<path d="M5927 36235
L6884 30807
" />
<path d="M498 35278
L5927 36235
" />
<path d="M1456 29850
L498 35278
" />
<path d="M17360 11066
L11932 10109
" />
<path d="M16403 16494
L17360 11066
" />
<path d="M10975 15537
L16403 16494
" />
<path d="M11932 10109
L10975 15537
" />
<path d="M16130 18045
L10702 17088
" />
<path d="M15173 23473
L16130 18045
" />
<path d="M9745 22516
L15173 23473
" />
<path d="M10702 17088
L9745 22516
" />
<path d="M14899 25024
L9471 24067
" />
<path d="M13942 30452
L14899 25024
" />
<path d="M8514 29495
L13942 30452
" />
<path d="M9471 24067
L8514 29495
" />
<path d="M13669 32003
L8241 31046
" />
<path d="M12712 37431
L13669 32003
" />
<path d="M7284 36474
L12712 37431
" />
<path d="M8241 31046
L7284 36474
" />
<path d="M25615 3927
L20187 2970
" />
<path d="M24658 9355
L25615 3927
" />
<path d="M19230 8398
L24658 9355
" />
<path d="M20187 2970
L19230 8398
" />
<path d="M24351 11100
L18923 10142
" />
<path d="M23394 16528
L24351 11100
" />
<path d="M17965 15571
L23394 16528
" />
<path d="M18923 10142
L17965 15571
" />
<path d="M23120 18079
L17692 17121
" />
<path d="M22163 23507
L23120 18079
" />
<path d="M16735 22550
L22163 23507
" />
<path d="M17692 17121
L16735 22550
" />
<path d="M21889 25058
L16461 24100
" />
<path d="M20932 30486
L21889 25058
" />
<path d="M15504 29528
L20932 30486
" />
<path d="M16461 24100
L15504 29528
" />
<path d="M20659 32036
L15231 31079
" />
<path d="M19702 37465
L20659 32036
" />
<path d="M14274 36507
L19702 37465
" />
<path d="M15231 31079
L14274 36507
" />
<path d="M32548 3150
L27120 2193
" />
<path d="M31591 8578
L32548 3150
" />
<path d="M26163 7621
L31591 8578
" />
<path d="M27120 2193
L26163 7621
" />
<path d="M31318 10129
L25890 9172
" />
<path d="M30361 15557
L31318 10129
" />
<path d="M24933 14600
L30361 15557
" />
<path d="M25890 9172
L24933 14600
" />
<path d="M30087 17108
L24659 16151
" />
<path d="M29130 22536
L30087 17108
" />
<path d="M23702 21579
L29130 22536
" />
<path d="M24659 16151
L23702 21579
" />
<path d="M28857 24087
L23429 23130
" />
<path d="M27900 29515
L28857 24087
" />
<path d="M22472 28558
L27900 29515
" />
<path d="M23429 23130
L22472 28558
" />
<path d="M27626 31066
L22198 30109
" />
<path d="M26669 36494
L27626 31066
" />
<path d="M21241 35537
L26669 36494
" />
<path d="M22198 30109
L21241 35537
" />
<path d="M38826 6656
L33398 5699
" />
<path d="M37869 12084
L38826 6656
" />
<path d="M32441 11127
L37869 12084
" />
<path d="M33398 5699
L32441 11127
" />
<path d="M37596 13635
L32168 12678
" />
<path d="M36639 19063
L37596 13635
" />
<path d="M31211 18106
L36639 19063
" />
<path d="M32168 12678
L31211 18106
" />
<path d="M36365 20614
L30937 19657
" />
<path d="M35408 26042
L36365 20614
" />
<path d="M29980 25085
L35408 26042
" />
<path d="M30937 19657
L29980 25085
" />
<path d="M35135 27593
L29707 26636
" />
<path d="M34178 33021
L35135 27593
" />
<path d="M28750 32064
L34178 33021
" />
<path d="M29707 26636
L28750 32064
" />
<path d="M33904 34572
L28476 33615
" />
<path d="M32947 40000
L33904 34572
" />
<path d="M27519 39043
L32947 40000
" />
<path d="M28476 33615
L27519 39043
" />
<path d="M45270 9791
L39842 8834
" />
<path d="M44313 15219
L45270 9791
" />
<path d="M38885 14262
L44313 15219
" />
<path d="M39842 8834
L38885 14262
" />
<path d="M44039 16770
L38611 15813
" />
<path d="M43082 22198
L44039 16770
" />
<path d="M37654 21241
L43082 22198
" />
<path d="M38611 15813
L37654 21241
" />
<path d="M42809 23749
L37380 22792
" />
<path d="M41851 29177
L42809 23749
" />
<path d="M36423 28220
L41851 29177
" />
<path d="M37380 22792
L36423 28220
" />
<path d="M41578 30728
L36150 29771
" />
<path d="M40621 36156
L41578 30728
" />
<path d="M35193 35199
L40621 36156
" />
<path d="M36150 29771
L35193 35199
" />
<path d="M40347 37707
L34919 36750
" />
<path d="M39390 43135
L40347 37707
" />
<path d="M33962 42178
L39390 43135
" />
<path d="M34919 36750
L33962 42178
" />
</g>

<g style="fill:#000000; fill-opacity:0.0;
stroke:#000000; stroke-width:19.685; stroke-opacity:1;
stroke-linecap:round; stroke-linejoin:round;">
</g>
<g style="fill:#C2C200; fill-opacity:0.0;
stroke:#C2C200; stroke-width:19.685; stroke-opacity:1;
stroke-linecap:round; stroke-linejoin:round;">
</g>
<g style="fill:#C2C200; fill-opacity:0.0;
stroke:#C2C200; stroke-width:59.0551; stroke-opacity:1;
stroke-linecap:round; stroke-linejoin:round;">
<path d="M181 18100
L5850 29
" />
<path d="M181 36289
L181 18100
" />
<path d="M220 36289
L338 36289
" />
<path d="M47976 8887
L47976 9242
" />
<path d="M32464 1210
L33291 1564
" />
<path d="M26953 187
L32464 1210
" />
<path d="M18291 1998
L26953 187
" />
<path d="M5850 29
L18291 1998
" />
<path d="M32661 1289
L48016 8887
" />
<path d="M299 36289
L33685 43139
" />
<path d="M48055 41053
L47858 42116
" />
<path d="M48016 9084
L48055 41013
" />
<path d="M40852 44457
L47865 42096
" />
<path d="M33609 43140
L40852 44457
" />
</g>
</svg>
