G04 #@! TF.GenerationSoftware,KiCad,Pcbnew,(5.0.1-3-g963ef8bb5)*
G04 #@! TF.CreationDate,2019-09-06T12:34:14-07:00*
G04 #@! TF.ProjectId,atreus-ipad-11,6174726575732D697061642D31312E6B,rev?*
G04 #@! TF.SameCoordinates,Original*
G04 #@! TF.FileFunction,Copper,L2,Bot,Signal*
G04 #@! TF.FilePolarity,Positive*
%FSLAX46Y46*%
G04 Gerber Fmt 4.6, Leading zero omitted, Abs format (unit mm)*
G04 Created by KiCad (PCBNEW (5.0.1-3-g963ef8bb5)) date Friday, September 06, 2019 at 12:34:14 PM*
%MOMM*%
%LPD*%
G01*
G04 APERTURE LIST*
G04 #@! TA.AperFunction,ComponentPad*
%ADD10C,2.000000*%
G04 #@! TD*
G04 #@! TA.AperFunction,ComponentPad*
%ADD11C,1.900000*%
G04 #@! TD*
G04 #@! TA.AperFunction,ComponentPad*
%ADD12C,3.400000*%
G04 #@! TD*
G04 #@! TA.AperFunction,ComponentPad*
%ADD13R,1.350000X1.350000*%
G04 #@! TD*
G04 #@! TA.AperFunction,ComponentPad*
%ADD14O,1.350000X1.350000*%
G04 #@! TD*
G04 #@! TA.AperFunction,ComponentPad*
%ADD15R,1.700000X1.700000*%
G04 #@! TD*
G04 #@! TA.AperFunction,ComponentPad*
%ADD16O,1.700000X1.700000*%
G04 #@! TD*
G04 #@! TA.AperFunction,ComponentPad*
%ADD17R,1.000000X1.000000*%
G04 #@! TD*
G04 #@! TA.AperFunction,ComponentPad*
%ADD18O,1.000000X1.000000*%
G04 #@! TD*
G04 #@! TA.AperFunction,ComponentPad*
%ADD19C,1.524000*%
G04 #@! TD*
G04 #@! TA.AperFunction,ViaPad*
%ADD20C,0.508000*%
G04 #@! TD*
G04 #@! TA.AperFunction,Conductor*
%ADD21C,0.152400*%
G04 #@! TD*
G04 APERTURE END LIST*
D10*
G04 #@! TO.P,SW26,1*
G04 #@! TO.N,/Row_6*
X122665258Y-119892067D03*
X132414854Y-121611184D03*
G04 #@! TO.P,SW26,2*
G04 #@! TO.N,Net-(D26-Pad2)*
X127904717Y-118683529D03*
D11*
G04 #@! TO.P,SW26,*
G04 #@! TO.N,*
X121463750Y-123538830D03*
X132296636Y-125448960D03*
D12*
X126880193Y-124493895D03*
G04 #@! TD*
D10*
G04 #@! TO.P,SW6,1*
G04 #@! TO.N,/Row_1*
X48737376Y-39584575D03*
X58486972Y-41303692D03*
G04 #@! TO.P,SW6,2*
G04 #@! TO.N,Net-(D6-Pad2)*
X53976835Y-38376037D03*
D11*
G04 #@! TO.P,SW6,*
G04 #@! TO.N,*
X47535868Y-43231338D03*
X58368754Y-45141468D03*
D12*
X52952311Y-44186403D03*
G04 #@! TD*
D10*
G04 #@! TO.P,SW1,1*
G04 #@! TO.N,/Row_1*
X31503242Y-36545732D03*
X41252838Y-38264849D03*
G04 #@! TO.P,SW1,2*
G04 #@! TO.N,Net-(D1-Pad2)*
X36742701Y-35337194D03*
D11*
G04 #@! TO.P,SW1,*
G04 #@! TO.N,*
X30301734Y-40192495D03*
X41134620Y-42102625D03*
D12*
X35718177Y-41147560D03*
G04 #@! TD*
D10*
G04 #@! TO.P,SW2,1*
G04 #@! TO.N,/Row_2*
X28377574Y-54272270D03*
X38127170Y-55991387D03*
G04 #@! TO.P,SW2,2*
G04 #@! TO.N,Net-(D2-Pad2)*
X33617033Y-53063732D03*
D11*
G04 #@! TO.P,SW2,*
G04 #@! TO.N,*
X27176066Y-57919033D03*
X38008952Y-59829163D03*
D12*
X32592509Y-58874098D03*
G04 #@! TD*
D10*
G04 #@! TO.P,SW3,1*
G04 #@! TO.N,/Row_3*
X25251906Y-71998811D03*
X35001502Y-73717928D03*
G04 #@! TO.P,SW3,2*
G04 #@! TO.N,Net-(D3-Pad2)*
X30491365Y-70790273D03*
D11*
G04 #@! TO.P,SW3,*
G04 #@! TO.N,*
X24050398Y-75645574D03*
X34883284Y-77555704D03*
D12*
X29466841Y-76600639D03*
G04 #@! TD*
D10*
G04 #@! TO.P,SW4,1*
G04 #@! TO.N,/Row_4*
X22126240Y-89725350D03*
X31875836Y-91444467D03*
G04 #@! TO.P,SW4,2*
G04 #@! TO.N,Net-(D4-Pad2)*
X27365699Y-88516812D03*
D11*
G04 #@! TO.P,SW4,*
G04 #@! TO.N,*
X20924732Y-93372113D03*
X31757618Y-95282243D03*
D12*
X26341175Y-94327178D03*
G04 #@! TD*
D10*
G04 #@! TO.P,SW5,1*
G04 #@! TO.N,/Row_5*
X19000573Y-107451889D03*
X28750169Y-109171006D03*
G04 #@! TO.P,SW5,2*
G04 #@! TO.N,Net-(D5-Pad2)*
X24240032Y-106243351D03*
D11*
G04 #@! TO.P,SW5,*
G04 #@! TO.N,*
X17799065Y-111098652D03*
X28631951Y-113008782D03*
D12*
X23215508Y-112053717D03*
G04 #@! TD*
D10*
G04 #@! TO.P,SW7,1*
G04 #@! TO.N,/Row_2*
X45611710Y-57311114D03*
X55361306Y-59030231D03*
G04 #@! TO.P,SW7,2*
G04 #@! TO.N,Net-(D7-Pad2)*
X50851169Y-56102576D03*
D11*
G04 #@! TO.P,SW7,*
G04 #@! TO.N,*
X44410202Y-60957877D03*
X55243088Y-62868007D03*
D12*
X49826645Y-61912942D03*
G04 #@! TD*
D10*
G04 #@! TO.P,SW8,1*
G04 #@! TO.N,/Row_3*
X42486043Y-75037653D03*
X52235639Y-76756770D03*
G04 #@! TO.P,SW8,2*
G04 #@! TO.N,Net-(D8-Pad2)*
X47725502Y-73829115D03*
D11*
G04 #@! TO.P,SW8,*
G04 #@! TO.N,*
X41284535Y-78684416D03*
X52117421Y-80594546D03*
D12*
X46700978Y-79639481D03*
G04 #@! TD*
D10*
G04 #@! TO.P,SW9,1*
G04 #@! TO.N,/Row_4*
X39360376Y-92764193D03*
X49109972Y-94483310D03*
G04 #@! TO.P,SW9,2*
G04 #@! TO.N,Net-(D9-Pad2)*
X44599835Y-91555655D03*
D11*
G04 #@! TO.P,SW9,*
G04 #@! TO.N,*
X38158868Y-96410956D03*
X48991754Y-98321086D03*
D12*
X43575311Y-97366021D03*
G04 #@! TD*
D10*
G04 #@! TO.P,SW10,1*
G04 #@! TO.N,/Row_5*
X36234709Y-110490732D03*
X45984305Y-112209849D03*
G04 #@! TO.P,SW10,2*
G04 #@! TO.N,Net-(D10-Pad2)*
X41474168Y-109282194D03*
D11*
G04 #@! TO.P,SW10,*
G04 #@! TO.N,*
X35033201Y-114137495D03*
X45866087Y-116047625D03*
D12*
X40449644Y-115092560D03*
G04 #@! TD*
D10*
G04 #@! TO.P,SW11,1*
G04 #@! TO.N,/Row_1*
X66579282Y-39176590D03*
X76328878Y-40895707D03*
G04 #@! TO.P,SW11,2*
G04 #@! TO.N,Net-(D11-Pad2)*
X71818741Y-37968052D03*
D11*
G04 #@! TO.P,SW11,*
G04 #@! TO.N,*
X65377774Y-42823353D03*
X76210660Y-44733483D03*
D12*
X70794217Y-43778418D03*
G04 #@! TD*
D10*
G04 #@! TO.P,SW12,1*
G04 #@! TO.N,/Row_2*
X63366789Y-57395533D03*
X73116385Y-59114650D03*
G04 #@! TO.P,SW12,2*
G04 #@! TO.N,Net-(D12-Pad2)*
X68606248Y-56186995D03*
D11*
G04 #@! TO.P,SW12,*
G04 #@! TO.N,*
X62165281Y-61042296D03*
X72998167Y-62952426D03*
D12*
X67581724Y-61997361D03*
G04 #@! TD*
D10*
G04 #@! TO.P,SW13,1*
G04 #@! TO.N,/Row_3*
X60241123Y-75122074D03*
X69990719Y-76841191D03*
G04 #@! TO.P,SW13,2*
G04 #@! TO.N,Net-(D13-Pad2)*
X65480582Y-73913536D03*
D11*
G04 #@! TO.P,SW13,*
G04 #@! TO.N,*
X59039615Y-78768837D03*
X69872501Y-80678967D03*
D12*
X64456058Y-79723902D03*
G04 #@! TD*
D10*
G04 #@! TO.P,SW14,1*
G04 #@! TO.N,/Row_4*
X57115456Y-92848613D03*
X66865052Y-94567730D03*
G04 #@! TO.P,SW14,2*
G04 #@! TO.N,Net-(D14-Pad2)*
X62354915Y-91640075D03*
D11*
G04 #@! TO.P,SW14,*
G04 #@! TO.N,*
X55913948Y-96495376D03*
X66746834Y-98405506D03*
D12*
X61330391Y-97450441D03*
G04 #@! TD*
D10*
G04 #@! TO.P,SW15,1*
G04 #@! TO.N,/Row_5*
X53989789Y-110575152D03*
X63739385Y-112294269D03*
G04 #@! TO.P,SW15,2*
G04 #@! TO.N,Net-(D15-Pad2)*
X59229248Y-109366614D03*
D11*
G04 #@! TO.P,SW15,*
G04 #@! TO.N,*
X52788281Y-114221915D03*
X63621167Y-116132045D03*
D12*
X58204724Y-115176980D03*
G04 #@! TD*
D10*
G04 #@! TO.P,SW16,1*
G04 #@! TO.N,/Row_1*
X84189253Y-37204570D03*
X93938849Y-38923687D03*
G04 #@! TO.P,SW16,2*
G04 #@! TO.N,Net-(D16-Pad2)*
X89428712Y-35996032D03*
D11*
G04 #@! TO.P,SW16,*
G04 #@! TO.N,*
X82987745Y-40851333D03*
X93820631Y-42761463D03*
D12*
X88404188Y-41806398D03*
G04 #@! TD*
D10*
G04 #@! TO.P,SW17,1*
G04 #@! TO.N,/Row_2*
X81063587Y-54931110D03*
X90813183Y-56650227D03*
G04 #@! TO.P,SW17,2*
G04 #@! TO.N,Net-(D17-Pad2)*
X86303046Y-53722572D03*
D11*
G04 #@! TO.P,SW17,*
G04 #@! TO.N,*
X79862079Y-58577873D03*
X90694965Y-60488003D03*
D12*
X85278522Y-59532938D03*
G04 #@! TD*
D10*
G04 #@! TO.P,SW18,1*
G04 #@! TO.N,/Row_3*
X77937920Y-72657649D03*
X87687516Y-74376766D03*
G04 #@! TO.P,SW18,2*
G04 #@! TO.N,Net-(D18-Pad2)*
X83177379Y-71449111D03*
D11*
G04 #@! TO.P,SW18,*
G04 #@! TO.N,*
X76736412Y-76304412D03*
X87569298Y-78214542D03*
D12*
X82152855Y-77259477D03*
G04 #@! TD*
D10*
G04 #@! TO.P,SW19,1*
G04 #@! TO.N,/Row_4*
X74812253Y-90384190D03*
X84561849Y-92103307D03*
G04 #@! TO.P,SW19,2*
G04 #@! TO.N,Net-(D19-Pad2)*
X80051712Y-89175652D03*
D11*
G04 #@! TO.P,SW19,*
G04 #@! TO.N,*
X73610745Y-94030953D03*
X84443631Y-95941083D03*
D12*
X79027188Y-94986018D03*
G04 #@! TD*
D10*
G04 #@! TO.P,SW20,1*
G04 #@! TO.N,/Row_5*
X71686586Y-108110728D03*
X81436182Y-109829845D03*
G04 #@! TO.P,SW20,2*
G04 #@! TO.N,Net-(D20-Pad2)*
X76926045Y-106902190D03*
D11*
G04 #@! TO.P,SW20,*
G04 #@! TO.N,*
X70485078Y-111757491D03*
X81317964Y-113667621D03*
D12*
X75901521Y-112712556D03*
G04 #@! TD*
D10*
G04 #@! TO.P,SW21,1*
G04 #@! TO.N,/Row_1*
X100135299Y-46108848D03*
X109884895Y-47827965D03*
G04 #@! TO.P,SW21,2*
G04 #@! TO.N,Net-(D21-Pad2)*
X105374758Y-44900310D03*
D11*
G04 #@! TO.P,SW21,*
G04 #@! TO.N,*
X98933791Y-49755611D03*
X109766677Y-51665741D03*
D12*
X104350234Y-50710676D03*
G04 #@! TD*
D10*
G04 #@! TO.P,SW22,1*
G04 #@! TO.N,/Row_2*
X97009632Y-63835387D03*
X106759228Y-65554504D03*
G04 #@! TO.P,SW22,2*
G04 #@! TO.N,Net-(D22-Pad2)*
X102249091Y-62626849D03*
D11*
G04 #@! TO.P,SW22,*
G04 #@! TO.N,*
X95808124Y-67482150D03*
X106641010Y-69392280D03*
D12*
X101224567Y-68437215D03*
G04 #@! TD*
D10*
G04 #@! TO.P,SW23,1*
G04 #@! TO.N,/Row_3*
X93883965Y-81561927D03*
X103633561Y-83281044D03*
G04 #@! TO.P,SW23,2*
G04 #@! TO.N,Net-(D23-Pad2)*
X99123424Y-80353389D03*
D11*
G04 #@! TO.P,SW23,*
G04 #@! TO.N,*
X92682457Y-85208690D03*
X103515343Y-87118820D03*
D12*
X98098900Y-86163755D03*
G04 #@! TD*
D10*
G04 #@! TO.P,SW24,1*
G04 #@! TO.N,/Row_4*
X90758296Y-99288466D03*
X100507892Y-101007583D03*
G04 #@! TO.P,SW24,2*
G04 #@! TO.N,Net-(D24-Pad2)*
X95997755Y-98079928D03*
D11*
G04 #@! TO.P,SW24,*
G04 #@! TO.N,*
X89556788Y-102935229D03*
X100389674Y-104845359D03*
D12*
X94973231Y-103890294D03*
G04 #@! TD*
D10*
G04 #@! TO.P,SW25,1*
G04 #@! TO.N,/Row_5*
X87632629Y-117015006D03*
X97382225Y-118734123D03*
G04 #@! TO.P,SW25,2*
G04 #@! TO.N,Net-(D25-Pad2)*
X92872088Y-115806468D03*
D11*
G04 #@! TO.P,SW25,*
G04 #@! TO.N,*
X86431121Y-120661769D03*
X97264007Y-122571899D03*
D12*
X91847564Y-121616834D03*
G04 #@! TD*
D10*
G04 #@! TO.P,SW27,1*
G04 #@! TO.N,/Row_1*
X116501194Y-54071730D03*
X126250790Y-55790847D03*
G04 #@! TO.P,SW27,2*
G04 #@! TO.N,Net-(D27-Pad2)*
X121740653Y-52863192D03*
D11*
G04 #@! TO.P,SW27,*
G04 #@! TO.N,*
X115299686Y-57718493D03*
X126132572Y-59628623D03*
D12*
X120716129Y-58673558D03*
G04 #@! TD*
D10*
G04 #@! TO.P,SW28,1*
G04 #@! TO.N,/Row_2*
X113375527Y-71798269D03*
X123125123Y-73517386D03*
G04 #@! TO.P,SW28,2*
G04 #@! TO.N,Net-(D28-Pad2)*
X118614986Y-70589731D03*
D11*
G04 #@! TO.P,SW28,*
G04 #@! TO.N,*
X112174019Y-75445032D03*
X123006905Y-77355162D03*
D12*
X117590462Y-76400097D03*
G04 #@! TD*
D10*
G04 #@! TO.P,SW29,1*
G04 #@! TO.N,/Row_3*
X110249858Y-89524809D03*
X119999454Y-91243926D03*
G04 #@! TO.P,SW29,2*
G04 #@! TO.N,Net-(D29-Pad2)*
X115489317Y-88316271D03*
D11*
G04 #@! TO.P,SW29,*
G04 #@! TO.N,*
X109048350Y-93171572D03*
X119881236Y-95081702D03*
D12*
X114464793Y-94126637D03*
G04 #@! TD*
D10*
G04 #@! TO.P,SW30,1*
G04 #@! TO.N,/Row_4*
X107124191Y-107251348D03*
X116873787Y-108970465D03*
G04 #@! TO.P,SW30,2*
G04 #@! TO.N,Net-(D30-Pad2)*
X112363650Y-106042810D03*
D11*
G04 #@! TO.P,SW30,*
G04 #@! TO.N,*
X105922683Y-110898111D03*
X116755569Y-112808241D03*
D12*
X111339126Y-111853176D03*
G04 #@! TD*
D10*
G04 #@! TO.P,SW31,1*
G04 #@! TO.N,/Row_5*
X103998525Y-124977889D03*
X113748121Y-126697006D03*
G04 #@! TO.P,SW31,2*
G04 #@! TO.N,Net-(D31-Pad2)*
X109237984Y-123769351D03*
D11*
G04 #@! TO.P,SW31,*
G04 #@! TO.N,*
X102797017Y-128624652D03*
X113629903Y-130534782D03*
D12*
X108213460Y-129579717D03*
G04 #@! TD*
D13*
G04 #@! TO.P,J2,1*
G04 #@! TO.N,/Row_1*
X132300000Y-53300000D03*
D14*
G04 #@! TO.P,J2,2*
G04 #@! TO.N,/Row_2*
X132300000Y-55300000D03*
G04 #@! TO.P,J2,3*
G04 #@! TO.N,/Row_3*
X132300000Y-57300000D03*
G04 #@! TO.P,J2,4*
G04 #@! TO.N,/Row_4*
X132300000Y-59300000D03*
G04 #@! TO.P,J2,5*
G04 #@! TO.N,/Row_5*
X132300000Y-61300000D03*
G04 #@! TO.P,J2,6*
G04 #@! TO.N,/Row_6*
X132300000Y-63300000D03*
G04 #@! TD*
D15*
G04 #@! TO.P,J3,1*
G04 #@! TO.N,Net-(J3-Pad1)*
X128000000Y-72500000D03*
D16*
G04 #@! TO.P,J3,2*
G04 #@! TO.N,Net-(J3-Pad2)*
X128000000Y-75040000D03*
G04 #@! TO.P,J3,3*
G04 #@! TO.N,Net-(J3-Pad3)*
X128000000Y-77580000D03*
G04 #@! TO.P,J3,4*
G04 #@! TO.N,Net-(J3-Pad4)*
X128000000Y-80120000D03*
G04 #@! TO.P,J3,5*
G04 #@! TO.N,Net-(J3-Pad5)*
X128000000Y-82660000D03*
G04 #@! TO.P,J3,6*
G04 #@! TO.N,Net-(J3-Pad6)*
X128000000Y-85200000D03*
G04 #@! TO.P,J3,7*
G04 #@! TO.N,Net-(J3-Pad7)*
X128000000Y-87740000D03*
G04 #@! TO.P,J3,8*
G04 #@! TO.N,Net-(J3-Pad8)*
X128000000Y-90280000D03*
G04 #@! TO.P,J3,9*
G04 #@! TO.N,Net-(J3-Pad9)*
X128000000Y-92820000D03*
G04 #@! TO.P,J3,10*
G04 #@! TO.N,Net-(J3-Pad10)*
X128000000Y-95360000D03*
G04 #@! TO.P,J3,11*
G04 #@! TO.N,Net-(J3-Pad11)*
X128000000Y-97900000D03*
G04 #@! TO.P,J3,12*
G04 #@! TO.N,Net-(J3-Pad12)*
X128000000Y-100440000D03*
G04 #@! TO.P,J3,13*
G04 #@! TO.N,Net-(J3-Pad13)*
X128000000Y-102980000D03*
G04 #@! TO.P,J3,14*
G04 #@! TO.N,Net-(J3-Pad14)*
X128000000Y-105520000D03*
G04 #@! TO.P,J3,15*
G04 #@! TO.N,Net-(J3-Pad15)*
X128000000Y-108060000D03*
G04 #@! TO.P,J3,16*
G04 #@! TO.N,Net-(J3-Pad16)*
X128000000Y-110600000D03*
G04 #@! TD*
D13*
G04 #@! TO.P,J1,1*
G04 #@! TO.N,/Row_1*
X124500000Y-86600000D03*
D14*
G04 #@! TO.P,J1,2*
G04 #@! TO.N,/Row_2*
X124500000Y-88600000D03*
G04 #@! TO.P,J1,3*
G04 #@! TO.N,/Row_3*
X124500000Y-90600000D03*
G04 #@! TO.P,J1,4*
G04 #@! TO.N,/Row_4*
X124500000Y-92600000D03*
G04 #@! TO.P,J1,5*
G04 #@! TO.N,/Row_5*
X124500000Y-94600000D03*
G04 #@! TO.P,J1,6*
G04 #@! TO.N,/Row_6*
X124500000Y-96600000D03*
G04 #@! TD*
G04 #@! TO.P,J4,6*
G04 #@! TO.N,/Column_6*
X124700000Y-110500000D03*
G04 #@! TO.P,J4,5*
G04 #@! TO.N,/Column_5*
X124700000Y-108500000D03*
G04 #@! TO.P,J4,4*
G04 #@! TO.N,/Column_4*
X124700000Y-106500000D03*
G04 #@! TO.P,J4,3*
G04 #@! TO.N,/Column_3*
X124700000Y-104500000D03*
G04 #@! TO.P,J4,2*
G04 #@! TO.N,/Column_2*
X124700000Y-102500000D03*
D13*
G04 #@! TO.P,J4,1*
G04 #@! TO.N,/Column_1*
X124700000Y-100500000D03*
G04 #@! TD*
D17*
G04 #@! TO.P,J6,1*
G04 #@! TO.N,Net-(J6-Pad1)*
X133900000Y-94700000D03*
D18*
G04 #@! TO.P,J6,2*
G04 #@! TO.N,Net-(J6-Pad2)*
X133900000Y-95970000D03*
G04 #@! TO.P,J6,3*
G04 #@! TO.N,Net-(J6-Pad3)*
X133900000Y-97240000D03*
G04 #@! TD*
D19*
G04 #@! TO.P,SW32,1*
G04 #@! TO.N,Net-(J6-Pad1)*
X19756000Y-78814000D03*
G04 #@! TO.P,SW32,2*
G04 #@! TO.N,Net-(J6-Pad2)*
X19756000Y-81354000D03*
G04 #@! TO.P,SW32,3*
G04 #@! TO.N,Net-(J6-Pad3)*
X19756000Y-83894000D03*
G04 #@! TD*
D20*
G04 #@! TO.N,/Column_1*
X41400000Y-82600000D03*
X44000000Y-82500000D03*
X59000000Y-81700000D03*
X62400000Y-82000000D03*
X76700000Y-79800000D03*
X79000000Y-79900000D03*
X93000000Y-83400000D03*
X110900000Y-87800000D03*
X113400000Y-87900000D03*
X96582610Y-83500000D03*
G04 #@! TO.N,/Column_2*
X59100000Y-85100000D03*
X61200000Y-85500000D03*
X76900000Y-81600000D03*
X78800000Y-83100000D03*
X92700000Y-87700000D03*
X110900000Y-92000000D03*
X113200000Y-91300000D03*
X96800000Y-89400000D03*
G04 #@! TO.N,/Column_3*
X75500000Y-88400000D03*
X77500000Y-89400000D03*
X92400000Y-89500000D03*
X110900000Y-94500000D03*
X112600000Y-95900000D03*
X97000000Y-92400000D03*
G04 #@! TO.N,/Column_4*
X111700000Y-96300000D03*
X91000000Y-101400000D03*
X93599996Y-101500000D03*
X109499996Y-95600000D03*
G04 #@! TO.N,/Column_5*
X111400000Y-97400000D03*
X107500000Y-96500000D03*
G04 #@! TD*
D21*
G04 #@! TO.N,/Column_1*
X43900000Y-82600000D02*
X44000000Y-82500000D01*
X41400000Y-82600000D02*
X43900000Y-82600000D01*
X59300000Y-82000000D02*
X62400000Y-82000000D01*
X59000000Y-81700000D02*
X59300000Y-82000000D01*
X78900000Y-79800000D02*
X79000000Y-79900000D01*
X76700000Y-79800000D02*
X78900000Y-79800000D01*
X113300000Y-87800000D02*
X113400000Y-87900000D01*
X110900000Y-87800000D02*
X113300000Y-87800000D01*
X93000000Y-83400000D02*
X96482610Y-83400000D01*
X96482610Y-83400000D02*
X96582610Y-83500000D01*
G04 #@! TO.N,/Column_2*
X60800000Y-85100000D02*
X61200000Y-85500000D01*
X59100000Y-85100000D02*
X60800000Y-85100000D01*
X78400000Y-83100000D02*
X78800000Y-83100000D01*
X76900000Y-81600000D02*
X78400000Y-83100000D01*
X111600000Y-91300000D02*
X113200000Y-91300000D01*
X110900000Y-92000000D02*
X111600000Y-91300000D01*
X92700000Y-87700000D02*
X94400000Y-89400000D01*
X96440790Y-89400000D02*
X96800000Y-89400000D01*
X94400000Y-89400000D02*
X96440790Y-89400000D01*
G04 #@! TO.N,/Column_3*
X76500000Y-89400000D02*
X77500000Y-89400000D01*
X75500000Y-88400000D02*
X76500000Y-89400000D01*
X110900000Y-94500000D02*
X112400000Y-96000000D01*
X112500000Y-96000000D02*
X112600000Y-95900000D01*
X112400000Y-96000000D02*
X112500000Y-96000000D01*
X95300000Y-92400000D02*
X96640790Y-92400000D01*
X92400000Y-89500000D02*
X95300000Y-92400000D01*
X96640790Y-92400000D02*
X97000000Y-92400000D01*
G04 #@! TO.N,/Column_4*
X93499996Y-101400000D02*
X93599996Y-101500000D01*
X91000000Y-101400000D02*
X93499996Y-101400000D01*
X111000000Y-95600000D02*
X109859206Y-95600000D01*
X111700000Y-96300000D02*
X111000000Y-95600000D01*
X109859206Y-95600000D02*
X109499996Y-95600000D01*
G04 #@! TO.N,/Column_5*
X111400000Y-97400000D02*
X110500000Y-96500000D01*
X107859210Y-96500000D02*
X107500000Y-96500000D01*
X110500000Y-96500000D02*
X107859210Y-96500000D01*
G04 #@! TO.N,/Row_1*
X31503241Y-36545732D02*
X41252838Y-38264849D01*
X41252838Y-38264849D02*
X48737376Y-39584575D01*
X58486973Y-41303692D02*
X48737376Y-39584575D01*
X62541570Y-38464632D02*
X58486973Y-41303692D01*
X66579281Y-39176590D02*
X62541570Y-38464632D01*
X66579281Y-39176590D02*
X76328878Y-40895707D01*
X82121158Y-36839909D02*
X84189253Y-37204570D01*
X76328878Y-40895707D02*
X82121158Y-36839909D01*
X93289923Y-37996923D02*
X93938850Y-38923687D01*
X85116017Y-36555643D02*
X93289923Y-37996923D01*
X84189253Y-37204570D02*
X85116017Y-36555643D01*
X95268340Y-39158112D02*
X100135299Y-46108849D01*
X93938850Y-38923687D02*
X95268340Y-39158112D01*
X100135299Y-46108849D02*
X109884895Y-47827966D01*
X112445395Y-48279451D02*
X116501193Y-54071730D01*
X109884895Y-47827966D02*
X112445395Y-48279451D01*
X116501193Y-54071730D02*
X126250790Y-55790847D01*
X124500000Y-57541637D02*
X126250790Y-55790847D01*
X124500000Y-86600000D02*
X124500000Y-57541637D01*
X128741637Y-53300000D02*
X132300000Y-53300000D01*
X126250790Y-55790847D02*
X128741637Y-53300000D01*
G04 #@! TO.N,/Row_2*
X28377574Y-54272270D02*
X38127171Y-55991387D01*
X44497528Y-57114654D02*
X45611710Y-57311114D01*
X38127171Y-55991387D02*
X44497528Y-57114654D01*
X45611710Y-57311114D02*
X55361306Y-59030231D01*
X59891420Y-59829013D02*
X63366789Y-57395533D01*
X55361306Y-59030231D02*
X59891420Y-59829013D01*
X63366789Y-57395533D02*
X73116386Y-59114650D01*
X79487892Y-54653273D02*
X73116386Y-59114650D01*
X81063587Y-54931111D02*
X79487892Y-54653273D01*
X90813183Y-56650227D02*
X81063587Y-54931111D01*
X92142675Y-56884653D02*
X97009632Y-63835387D01*
X90813183Y-56650227D02*
X92142675Y-56884653D01*
X97009632Y-63835387D02*
X106759228Y-65554504D01*
X110815026Y-71346784D02*
X113375526Y-71798269D01*
X106759228Y-65554504D02*
X110815026Y-71346784D01*
X113375526Y-71798269D02*
X123125123Y-73517386D01*
X121828304Y-85928304D02*
X123825001Y-87925001D01*
X123825001Y-87925001D02*
X124500000Y-88600000D01*
X121828304Y-74814205D02*
X121828304Y-85928304D01*
X123125123Y-73517386D02*
X121828304Y-74814205D01*
G04 #@! TO.N,/Row_3*
X25251906Y-71998811D02*
X35001503Y-73717928D01*
X36046050Y-73902108D02*
X42486043Y-75037653D01*
X35001503Y-73717928D02*
X36046050Y-73902108D01*
X42486043Y-75037653D02*
X52235639Y-76756770D01*
X55711006Y-74323292D02*
X60241123Y-75122074D01*
X52235639Y-76756770D02*
X55711006Y-74323292D01*
X60241123Y-75122074D02*
X69990719Y-76841191D01*
X71566411Y-77119028D02*
X77937920Y-72657649D01*
X69990719Y-76841191D02*
X71566411Y-77119028D01*
X77937920Y-72657649D02*
X87687516Y-74376766D01*
X89017007Y-74611191D02*
X93883964Y-81561927D01*
X87687516Y-74376766D02*
X89017007Y-74611191D01*
X93883964Y-81561927D02*
X103633561Y-83281044D01*
X107689360Y-89073324D02*
X110249858Y-89524809D01*
X103633561Y-83281044D02*
X107689360Y-89073324D01*
X110249858Y-89524809D02*
X119999455Y-91243926D01*
X123856074Y-91243926D02*
X124500000Y-90600000D01*
X119999454Y-91243926D02*
X123856074Y-91243926D01*
G04 #@! TO.N,/Row_4*
X22775166Y-90652114D02*
X30949073Y-92093394D01*
X30949073Y-92093394D02*
X31875836Y-91444467D01*
X22126240Y-89725350D02*
X22775166Y-90652114D01*
X31875836Y-91444467D02*
X39360375Y-92764193D01*
X48183208Y-95132237D02*
X49109972Y-94483310D01*
X40009302Y-93690957D02*
X48183208Y-95132237D01*
X39360375Y-92764193D02*
X40009302Y-93690957D01*
X53640088Y-95282092D02*
X57115455Y-92848613D01*
X49109972Y-94483310D02*
X53640088Y-95282092D01*
X57115455Y-92848613D02*
X66865052Y-94567730D01*
X68440745Y-94845567D02*
X74812252Y-90384190D01*
X66865052Y-94567730D02*
X68440745Y-94845567D01*
X74812252Y-90384190D02*
X84561849Y-92103307D01*
X89428806Y-99054041D02*
X90758296Y-99288466D01*
X84561849Y-92103307D02*
X89428806Y-99054041D01*
X99581129Y-101656510D02*
X100507893Y-101007583D01*
X91407223Y-100215230D02*
X99581129Y-101656510D01*
X90758296Y-99288466D02*
X91407223Y-100215230D01*
X104563691Y-106799863D02*
X107124191Y-107251348D01*
X100507893Y-101007583D02*
X104563691Y-106799863D01*
X107124191Y-107251348D02*
X116873788Y-108970465D01*
X123825001Y-93274999D02*
X124500000Y-92600000D01*
X121059837Y-96040163D02*
X123825001Y-93274999D01*
X121059837Y-104784415D02*
X121059837Y-96040163D01*
X116873787Y-108970465D02*
X121059837Y-104784415D01*
G04 #@! TO.N,/Row_5*
X19000573Y-107451889D02*
X28750169Y-109171006D01*
X28750169Y-109171006D02*
X36234708Y-110490732D01*
X36234708Y-110490732D02*
X45984305Y-112209849D01*
X50514421Y-113008631D02*
X53989788Y-110575152D01*
X45984305Y-112209849D02*
X50514421Y-113008631D01*
X53989788Y-110575152D02*
X63739385Y-112294269D01*
X65315078Y-112572106D02*
X71686585Y-108110728D01*
X63739385Y-112294269D02*
X65315078Y-112572106D01*
X71686585Y-108110728D02*
X81436182Y-109829845D01*
X82765671Y-110064270D02*
X87632629Y-117015006D01*
X81436182Y-109829845D02*
X82765671Y-110064270D01*
X96455462Y-119383049D02*
X97382226Y-118734123D01*
X88281556Y-117941769D02*
X96455462Y-119383049D01*
X87632629Y-117015006D02*
X88281556Y-117941769D01*
X101438024Y-124526403D02*
X103998525Y-124977889D01*
X97382226Y-118734123D02*
X101438024Y-124526403D01*
X103998525Y-124977889D02*
X113748121Y-126697006D01*
X121395191Y-97704809D02*
X121395191Y-117073743D01*
X113748121Y-124720813D02*
X113748121Y-125636346D01*
X124500000Y-94600000D02*
X121395191Y-97704809D01*
X121395191Y-117073743D02*
X113748121Y-124720813D01*
X113748121Y-125636346D02*
X113748121Y-126697006D01*
G04 #@! TO.N,/Row_6*
X122665258Y-119892067D02*
X132414855Y-121611184D01*
X124500000Y-96600000D02*
X122665258Y-98434742D01*
X122665258Y-98434742D02*
X122665258Y-116234742D01*
X122665258Y-116234742D02*
X122665258Y-119892067D01*
G04 #@! TD*
M02*
